<?xml version="1.0" encoding="utf-8"?>
<!-- Generator: Adobe Illustrator 27.5.0, SVG Export Plug-In . SVG Version: 6.00 Build 0)  -->
<svg version="1.1" id="Capa_1" xmlns="http://www.w3.org/2000/svg" xmlns:xlink="http://www.w3.org/1999/xlink" x="0px" y="0px"
	 viewBox="0 0 423.808 422.438" style="enable-background:new 0 0 423.808 422.438;" xml:space="preserve">
<g>
	<path style="fill:#C3E7ED;" d="M299.06,191.79c-0.689-2.063-2.222-3.646-4.223-4.345c-1.647-0.571-3.455-0.51-5.169,0.186
		c-0.449,0.184-0.972,0.452-1.513,0.843c-0.112-0.264-0.235-0.526-0.369-0.788c-0.605-1.182-1.366-2.278-2.264-3.264
		c-0.875-0.958-1.835-1.783-2.862-2.461c-3.836-2.517-8.193-1.725-10.577,1.204c-0.552,0.678-0.978,1.441-1.277,2.3
		c-0.002-0.002-0.004-0.004-0.005-0.005c-1.313-1.283-2.812-2.272-4.461-2.946c-1.646-0.671-3.247-1.011-4.758-1.011
		c-4.235,0-6.535,3.13-6.574,6.004c-0.097-0.24-0.185-0.483-0.295-0.718c-0.799-1.702-1.982-3.153-3.522-4.317
		c-1.871-1.411-4.269-2.101-7.042-2.024c0.487-1.29,0.911-2.502,1.262-3.607c0.54-1.706,0.78-2.979,0.78-4.131
		c0-1.713-0.495-3.35-1.476-4.867c-0.681-1.05-1.507-2.002-2.462-2.834c-0.945-0.822-1.986-1.504-3.103-2.032
		c-3.307-1.557-6.581-1.189-8.909,0.606c-0.979,0.757-2.604,2.487-2.691,5.673c-0.033,0.138-0.116,0.445-0.31,0.992
		c-0.373,1.048-0.876,2.316-1.498,3.765c-0.639,1.49-1.393,3.164-2.244,4.975l-2.718,5.772c-0.803,1.719-1.595,3.439-2.385,5.157
		c-0.207-0.742-0.463-1.49-0.799-2.239c-0.611-1.359-1.488-2.599-2.609-3.688c-1.139-1.103-2.546-1.993-4.186-2.643
		c-1.614-0.639-3.49-0.963-5.578-0.963c-2.33,0-4.667,0.473-6.946,1.404c-1.284,0.525-2.537,1.18-3.756,1.931
		c0.859-1.091,1.619-2.196,2.268-3.306c1.579-2.703,2.38-5.409,2.38-8.039c0-0.846-0.085-1.797-0.263-2.913
		c-0.211-1.327-0.657-2.706-1.327-4.103c-0.69-1.434-1.68-2.831-2.948-4.155c-1.304-1.358-3.009-2.562-5.069-3.58
		c-1.929-0.953-4.172-1.69-6.861-2.256c-2.606-0.548-5.59-0.813-9.123-0.813c-6.131,0-12.072,0.615-17.658,1.827
		c-5.527,1.2-10.764,2.82-15.568,4.817c-4.825,2.006-9.269,4.351-13.21,6.972c-3.944,2.623-7.391,5.397-10.242,8.249
		c-2.953,2.955-5.289,5.973-6.942,8.975c-1.85,3.361-2.788,6.618-2.788,9.683c0,2.504,0.446,4.716,1.329,6.575
		c0.897,1.887,2.12,3.444,3.633,4.628c1.443,1.129,3.058,1.926,4.802,2.369c1.451,0.37,2.901,0.556,4.311,0.556h0.335
		c2.663,0,5.43-0.779,8.46-2.384c2.448-1.296,5.013-2.939,7.623-4.88c0.797-0.594,1.598-1.208,2.4-1.842
		c-0.495,1.107-0.945,2.171-1.344,3.178c-0.578,1.454-1.038,2.819-1.369,4.056c-0.405,1.512-0.602,2.824-0.602,4.013
		c0,1.894,0.414,3.664,1.229,5.256c0.351,0.689,0.755,1.336,1.205,1.938c-0.788,0.068-1.579,0.111-2.374,0.132
		c-0.325-1.311-0.87-2.466-1.634-3.453c-1.596-2.055-3.783-3.189-6.157-3.189c-1.322,0-3.857,0.403-5.991,3.101
		c-1.338,1.696-1.989,3.878-1.989,6.67c0,1.587,0.314,3.261,0.932,4.975c0.706,1.957,1.93,3.739,3.638,5.299
		c1.592,1.451,3.658,2.628,6.141,3.5c2.402,0.843,5.258,1.251,8.731,1.251c3.386,0,6.953-0.482,10.601-1.431
		c0.615-0.16,1.23-0.342,1.845-0.522c0.268,2.043,1.261,4.262,3.129,6.984c-0.266,0.064-0.529,0.148-0.788,0.256
		c-2,0.829-3.305,2.78-3.305,4.945v2.346c0,1.87,0.977,3.604,2.576,4.575c2.035,1.235,4.153,1.861,6.295,1.861
		c1.477,0,2.85-0.262,4.082-0.781c0.09-0.036,0.173-0.082,0.262-0.119c0.807,0.486,1.741,0.783,2.751,0.783h1.847
		c0.865,0,1.682-0.205,2.405-0.569c0.723,0.365,1.539,0.569,2.404,0.569h1.847c1.825,0,3.431-0.916,4.398-2.311
		c0.704,0.443,1.436,0.848,2.184,1.175c1.913,0.851,3.984,1.283,6.158,1.283c2.211,0,4.303-0.432,6.188-1.27
		c1.61-0.706,3.056-1.66,4.332-2.814c0.636,2.317,2.737,3.938,5.151,3.938h0.763c1.649,0,3.156-0.753,4.149-1.97
		c0.992,1.217,2.5,1.97,4.148,1.97h0.763c1.325,0,2.547-0.497,3.495-1.319c0.938,0.811,2.145,1.319,3.483,1.319h8.884
		c0.366,0,0.724-0.038,1.07-0.107c0.346,0.07,0.704,0.107,1.07,0.107h1.847c1.134,0,2.187-0.353,3.052-0.955
		c0.684,0.327,1.427,0.615,2.229,0.863c0.518,0.16,1.05,0.238,1.579,0.238c1.13,0,2.246-0.358,3.178-1.045
		c1.367-1.009,2.175-2.607,2.175-4.307v-1.847c0-0.617-0.114-1.209-0.31-1.765c0.169,0.071,0.327,0.15,0.502,0.217
		c1.752,0.671,3.749,0.998,6.107,0.998c2.896,0,5.807-1.267,8.649-3.766c2.136-1.878,4.296-4.318,6.422-7.257
		c2.001-2.766,4.016-5.92,5.988-9.374c1.724-3.023,3.37-6.107,4.902-9.186c1.829-1.456,3.625-2.927,5.355-4.382
		c2.103-1.77,4.07-3.568,5.847-5.344c1.823-1.822,3.462-3.659,4.872-5.458c1.557-1.985,2.776-3.971,3.656-5.977
		C299.735,194.966,299.466,193.009,299.06,191.79z M182.145,171.43c-0.475,0.687-1.192,1.47-2.135,2.327
		c-1.06,0.965-2.348,1.965-3.827,2.974c-1.561,1.062-3.275,2.115-5.097,3.129c-0.138,0.076-0.276,0.153-0.414,0.229
		c0.138-0.792,0.205-1.53,0.205-2.233c0-1.853-0.645-3.701-1.869-5.349c-0.56-0.751-1.189-1.45-1.876-2.085
		c2.16-0.272,4.387-0.41,6.668-0.41c3.971,0,5.853,0.396,6.618,0.631c0.965,0.296,1.511,0.554,1.783,0.704
		C182.184,171.373,182.165,171.4,182.145,171.43z M155.526,213.536c0.319-0.895,0.763-1.972,1.317-3.2
		c0.587-1.296,1.27-2.728,2.036-4.256c0.398-0.796,0.808-1.607,1.23-2.431c0.88-0.15,1.77-0.329,2.663-0.538
		c1.582-0.368,3.207-0.838,4.842-1.396h0.316c0.663,0,1.158,0.034,1.517,0.077c-0.091,0.188-0.204,0.397-0.341,0.632
		c-0.75,1.272-1.848,2.628-3.262,4.026c-1.511,1.495-3.377,2.994-5.547,4.457c-1.505,1.015-3.127,1.963-4.84,2.831
		C155.477,213.676,155.5,213.609,155.526,213.536z M184.071,194.315c-0.125-0.148-0.241-0.304-0.37-0.447
		c-0.066-0.073-0.132-0.146-0.199-0.218c0.281-0.193,0.561-0.39,0.839-0.588c0.401-0.285,0.783-0.577,1.172-0.867
		C185.005,192.888,184.522,193.594,184.071,194.315z M192.178,241.26c-0.205,0.423-0.442,0.763-0.764,1.077
		c-0.313,0.313-0.65,0.542-1.031,0.704c-0.039,0.016-0.078,0.034-0.117,0.051c-0.742,0.335-1.639,0.282-2.216,0.017
		c-0.063-0.029-0.125-0.057-0.188-0.083c-0.37-0.154-0.671-0.356-0.995-0.689c-0.276-0.274-0.497-0.612-0.677-1.036
		c-0.168-0.39-0.245-0.764-0.245-1.176c0-0.647,0.168-1.183,0.576-1.787c0.306-0.463,0.682-0.802,1.183-1.067
		c0.478-0.253,0.948-0.371,1.48-0.371c0.415,0,0.787,0.072,1.165,0.225c0.403,0.188,0.747,0.422,1.048,0.713
		c0.314,0.339,0.567,0.711,0.773,1.133c0.15,0.386,0.224,0.764,0.224,1.154C192.393,240.531,192.325,240.893,192.178,241.26z
		 M195.355,225.69c-1.915-0.852-3.996-1.283-6.185-1.283c-2.21,0-4.301,0.432-6.197,1.275c-0.756,0.333-1.465,0.726-2.146,1.151
		c-0.966-1.393-2.572-2.309-4.396-2.309h-1.847c-0.23,0-0.457,0.017-0.68,0.046c1.946-1.403,3.74-2.849,5.331-4.328
		c0.986-0.918,1.88-1.853,2.72-2.795c0.275,0.487,0.564,0.963,0.884,1.418c1.182,1.685,2.669,3.065,4.416,4.1
		c1.932,1.147,4.14,1.729,6.564,1.729c1.526,0,3.045-0.347,4.511-1.03c0.981-0.457,1.929-1.013,2.82-1.658
		c0.407,0.333,0.836,0.653,1.287,0.958c1.542,1.043,3.309,1.594,5.241,1.69c-0.922,0.199-1.768,0.627-2.453,1.242
		c-0.958-0.859-2.219-1.372-3.577-1.372h-1.876c-1.398,0-2.726,0.551-3.717,1.509C195.82,225.919,195.592,225.794,195.355,225.69z
		 M219.767,224.524h-1.906c-1.351,0-2.607,0.506-3.563,1.359c-0.956-0.853-2.211-1.359-3.563-1.359h-0.814
		c1.703-0.343,3.376-1.213,4.994-2.599c0.421-0.361,0.846-0.759,1.27-1.174c2.153,2.096,5.042,3.359,8.624,3.773h-3.166
		c-0.317,0-0.625,0.041-0.927,0.094C220.405,224.562,220.088,224.524,219.767,224.524z M242.958,228.142
		c-1.016-0.983-2.173-1.803-3.439-2.437c-0.063-0.031-0.126-0.061-0.189-0.09c-1.443-0.652-2.986-1.018-4.586-1.086
		c-0.076-0.003-0.152-0.005-0.228-0.005h-1.847c-0.367,0-0.725,0.038-1.07,0.108c-0.291-0.059-0.594-0.081-0.9-0.091
		c2.647-0.236,5.209-0.759,7.642-1.586c3.232-1.097,6.28-2.538,9.057-4.277c0.162-0.102,0.316-0.21,0.476-0.313
		c0.293,0.488,0.605,0.966,0.955,1.425c0.477,0.626,0.995,1.208,1.55,1.74c-1.52,1.182-2.917,2.329-4.172,3.427
		c-1.255,1.099-2.318,2.151-3.244,3.188C242.959,228.145,242.958,228.144,242.958,228.142z"/>
	<g>
		<g>
			<path style="fill:#249DC3;" d="M193.817,172.376c0,1.677-0.551,3.458-1.649,5.34c-1.1,1.882-2.582,3.746-4.445,5.59
				c-1.864,1.846-4.025,3.644-6.485,5.396c-2.46,1.752-5.051,3.318-7.773,4.695c1.155,0.375,2.273,0.905,3.355,1.594
				c1.08,0.69,2.049,1.51,2.907,2.46c0.857,0.951,1.546,2.041,2.069,3.271c0.522,1.229,0.783,2.553,0.783,3.969
				c0,1.753-0.634,3.635-1.901,5.647c-1.268,2.013-2.963,4.007-5.088,5.982c-2.125,1.976-4.604,3.876-7.436,5.704
				c-2.833,1.825-5.806,3.439-8.917,4.836c-3.113,1.398-6.282,2.517-9.505,3.355c-3.225,0.838-6.31,1.257-9.253,1.257
				c-2.833,0-5.154-0.316-6.961-0.95c-1.809-0.634-3.243-1.436-4.305-2.404c-1.063-0.97-1.799-2.022-2.209-3.159
				c-0.411-1.138-0.615-2.191-0.615-3.159c0-1.528,0.279-2.647,0.839-3.356c0.559-0.706,1.154-1.062,1.788-1.062
				c0.708,0,1.352,0.374,1.93,1.118c0.577,0.747,0.867,1.846,0.867,3.299c0,0.447,0.279,0.931,0.838,1.453
				c0.56,0.522,1.603,0.784,3.131,0.784c3.467,0,6.849-0.392,10.149-1.175c3.299-0.782,6.401-1.817,9.309-3.103
				c2.908-1.286,5.591-2.759,8.052-4.417c2.46-1.658,4.565-3.354,6.318-5.088c1.751-1.733,3.122-3.438,4.109-5.116
				c0.987-1.678,1.482-3.188,1.482-4.53c0-0.483-0.103-0.987-0.308-1.509c-0.205-0.52-0.578-0.979-1.118-1.37
				c-0.541-0.391-1.287-0.717-2.237-0.978c-0.95-0.261-2.152-0.391-3.606-0.391H166.7c-1.753,0.633-3.467,1.146-5.145,1.537
				c-1.677,0.391-3.317,0.663-4.92,0.811c-0.894,1.714-1.743,3.375-2.544,4.976c-0.802,1.604-1.51,3.085-2.124,4.445
				c-0.616,1.361-1.11,2.563-1.482,3.606c-0.373,1.044-0.559,1.865-0.559,2.461c0,0.186,0.018,0.364,0.056,0.531
				c0.037,0.167,0.093,0.345,0.167,0.531v-0.057c0.112,0.412,0.205,0.803,0.28,1.175c0.074,0.372,0.084,0.698,0.028,0.979
				c-0.056,0.279-0.234,0.493-0.531,0.643c-0.299,0.149-0.746,0.224-1.342,0.224c-0.635,0-1.333-0.168-2.097-0.503
				c-0.764-0.336-1.473-0.802-2.125-1.399c-0.653-0.596-1.193-1.313-1.622-2.152c-0.429-0.839-0.643-1.78-0.643-2.823
				c0-0.707,0.14-1.585,0.419-2.628c0.28-1.044,0.67-2.199,1.174-3.466c0.503-1.267,1.09-2.628,1.761-4.081
				c0.671-1.455,1.379-2.965,2.125-4.53c-0.746-0.633-1.342-1.333-1.79-2.097c-0.446-0.764-0.67-1.444-0.67-2.041
				c0-0.633,0.176-1.147,0.531-1.538c0.354-0.391,0.922-0.588,1.705-0.588c0.335,0,0.633,0.076,0.895,0.224
				c0.261,0.15,0.503,0.318,0.727,0.504c0.148,0.076,0.317,0.167,0.503,0.279c0.186,0.112,0.392,0.206,0.615,0.279
				c1.155-2.348,2.273-4.649,3.354-6.905c1.081-2.254,1.976-4.257,2.684-6.011c-1.082,0.783-2.229,1.743-3.439,2.88
				c-1.211,1.137-2.637,2.451-4.277,3.94c-2.087,1.977-4.333,4.035-6.737,6.179c-2.404,2.144-4.809,4.109-7.213,5.899
				c-2.404,1.788-4.715,3.27-6.933,4.445c-2.217,1.174-4.202,1.76-5.954,1.76h-0.335c-0.969,0-1.966-0.129-2.992-0.391
				c-1.024-0.261-1.965-0.727-2.823-1.398c-0.857-0.67-1.556-1.574-2.097-2.712c-0.54-1.136-0.81-2.562-0.81-4.276
				c0-2.162,0.708-4.53,2.124-7.103c1.418-2.571,3.43-5.162,6.039-7.771c2.609-2.609,5.749-5.135,9.421-7.577
				c3.671-2.439,7.772-4.603,12.301-6.485c4.529-1.881,9.412-3.391,14.649-4.528c5.236-1.137,10.744-1.706,16.522-1.706
				c3.131,0,5.806,0.233,8.023,0.698c2.218,0.467,4.081,1.073,5.591,1.818c1.51,0.746,2.702,1.576,3.579,2.488
				c0.875,0.915,1.537,1.836,1.984,2.767c0.447,0.932,0.736,1.808,0.866,2.628C193.751,171.128,193.817,171.817,193.817,172.376z
				 M165.525,177.856c0,1.229-0.419,2.917-1.257,5.059c-0.839,2.144-1.893,4.501-3.159,7.073c2.124-0.671,4.258-1.472,6.402-2.404
				c2.143-0.932,4.202-1.948,6.178-3.047c1.976-1.099,3.812-2.228,5.508-3.383c1.696-1.155,3.168-2.301,4.417-3.438
				c1.249-1.137,2.227-2.218,2.936-3.243c0.707-1.025,1.063-1.949,1.063-2.768c0-0.41-0.048-1.007-0.14-1.79
				c-0.094-0.782-0.559-1.566-1.398-2.348c-0.839-0.783-2.2-1.462-4.081-2.04c-1.883-0.578-4.613-0.868-8.191-0.868
				c-5.256,0-10.204,0.653-14.845,1.956c-4.641,1.306-8.918,2.983-12.832,5.032c-3.914,2.051-7.427,4.343-10.539,6.877
				c-3.113,2.535-5.751,5.032-7.911,7.492c-2.162,2.46-3.821,4.744-4.977,6.849c-1.155,2.107-1.733,3.774-1.733,5.005
				c0,0.559,0.104,0.96,0.308,1.202c0.205,0.243,0.438,0.4,0.699,0.475h0.056c1.155,0,2.553-0.466,4.193-1.397
				c1.64-0.932,3.391-2.134,5.256-3.606c1.863-1.472,3.811-3.131,5.842-4.976c2.031-1.845,4.035-3.699,6.011-5.563
				c1.603-1.491,3.159-2.926,4.668-4.306c1.51-1.377,2.936-2.608,4.278-3.69c1.341-1.081,2.562-1.965,3.662-2.655
				c1.1-0.69,2.06-1.091,2.88-1.202h-0.057c0.448-0.075,1.053,0.038,1.817,0.334c0.764,0.299,1.51,0.728,2.237,1.287
				c0.727,0.559,1.36,1.202,1.901,1.929C165.254,176.43,165.525,177.147,165.525,177.856z"/>
			<path style="fill:#249DC3;" d="M184.927,208.328c0-1.603,0.27-3.272,0.811-5.005c0.541-1.733,1.286-3.439,2.236-5.116
				c0.951-1.677,2.078-3.27,3.383-4.779c1.304-1.51,2.712-2.833,4.222-3.97c1.51-1.137,3.084-2.04,4.724-2.711
				c1.64-0.671,3.28-1.007,4.92-1.007c1.417,0,2.619,0.196,3.606,0.586c0.987,0.392,1.798,0.895,2.433,1.51
				c0.633,0.616,1.118,1.296,1.453,2.041c0.335,0.745,0.568,1.463,0.699,2.152c0.13,0.69,0.177,1.314,0.14,1.873
				c-0.037,0.559-0.111,0.951-0.224,1.175h0.056c-0.112,0.298-0.345,0.438-0.699,0.418c-0.355-0.018-0.708-0.092-1.063-0.224
				c-0.354-0.13-0.67-0.297-0.95-0.503c-0.279-0.204-0.4-0.363-0.363-0.476c0.037-0.073,0.047-0.279,0.028-0.615
				c-0.019-0.335-0.131-0.679-0.336-1.035c-0.205-0.354-0.54-0.671-1.006-0.949c-0.467-0.28-1.128-0.421-1.985-0.421
				c-0.895,0-1.855,0.391-2.88,1.175c-1.025,0.782-2.041,1.798-3.047,3.046c-1.006,1.25-1.976,2.666-2.907,4.251
				c-0.932,1.584-1.743,3.186-2.432,4.809c-0.69,1.62-1.25,3.186-1.677,4.696c-0.429,1.509-0.644,2.806-0.644,3.886
				c0,1.341,0.392,2.012,1.175,2.012c0.931,0,1.882-0.41,2.852-1.23c0.968-0.82,1.909-1.863,2.823-3.131
				c0.913-1.267,1.761-2.665,2.544-4.193c0.783-1.528,1.472-2.982,2.069-4.361c0.596-1.379,1.063-2.59,1.397-3.635
				c0.336-1.043,0.504-1.733,0.504-2.069c0-0.335,0.184-0.539,0.554-0.615c0.371-0.075,0.833-0.037,1.388,0.111
				c0.555,0.15,1.165,0.363,1.832,0.644c0.666,0.279,1.276,0.596,1.831,0.95c0.555,0.354,1.017,0.727,1.387,1.118
				c0.37,0.392,0.556,0.737,0.556,1.035c0,0.411-0.196,1.082-0.586,2.014c-0.391,0.932-0.847,1.994-1.367,3.186
				c-0.372,0.821-0.754,1.678-1.145,2.573c-0.391,0.894-0.743,1.77-1.059,2.627c-0.316,0.859-0.577,1.66-0.782,2.404
				c-0.204,0.746-0.306,1.361-0.306,1.846c0,0.186-0.019,0.279-0.056,0.279c0.521,0,1.181-0.438,1.981-1.314
				c0.8-0.875,1.665-1.994,2.596-3.355c0.931-1.36,1.871-2.86,2.821-4.501c0.951-1.641,1.846-3.234,2.684-4.781
				c0.839-1.546,1.574-2.943,2.208-4.194c0.634-1.248,1.099-2.17,1.398-2.767c0.148-0.298,0.438-0.447,0.866-0.447
				c0.428,0,0.847,0.085,1.258,0.252c0.41,0.167,0.755,0.401,1.035,0.698c0.28,0.299,0.363,0.597,0.251,0.895
				c-0.336,0.747-0.886,1.865-1.649,3.356c-0.765,1.491-1.649,3.129-2.655,4.919c-1.007,1.79-2.097,3.625-3.271,5.507
				c-1.174,1.884-2.367,3.588-3.578,5.116c-1.21,1.53-2.393,2.787-3.546,3.775c-1.153,0.988-2.213,1.481-3.181,1.481
				c-1.08,0-2.019-0.27-2.818-0.81c-0.799-0.541-1.479-1.127-2.037-1.761c-0.669-0.746-1.228-1.622-1.674-2.628
				c-0.445,0.522-0.965,1.081-1.56,1.678c-0.594,0.597-1.234,1.155-1.921,1.678c-0.687,0.521-1.41,0.959-2.171,1.313
				c-0.761,0.355-1.513,0.531-2.255,0.531c-1.454,0-2.731-0.325-3.83-0.978c-1.1-0.651-2.023-1.51-2.768-2.572
				c-0.745-1.062-1.313-2.246-1.705-3.55C185.122,210.937,184.927,209.632,184.927,208.328z"/>
			<path style="fill:#249DC3;" d="M258.675,193.958c0.148-0.299,0.428-0.448,0.839-0.448c0.409,0,0.829,0.084,1.258,0.251
				c0.427,0.169,0.783,0.401,1.062,0.7c0.28,0.298,0.364,0.597,0.252,0.894c-0.373,0.747-1.035,1.865-1.985,3.355
				c-0.95,1.491-2.171,3.122-3.662,4.892c-1.492,1.771-3.234,3.588-5.229,5.452c-1.994,1.864-4.212,3.56-6.653,5.088
				c-2.441,1.529-5.088,2.777-7.939,3.747c-2.852,0.97-5.881,1.453-9.086,1.453c-3.69,0-6.355-0.93-7.995-2.795
				c-1.64-1.863-2.46-4.51-2.46-7.939c0-0.783,0.251-1.929,0.754-3.438c0.503-1.51,1.156-3.234,1.957-5.173
				c0.802-1.938,1.715-4.025,2.74-6.261c1.024-2.237,2.06-4.474,3.103-6.71c0.931-1.975,1.835-3.893,2.711-5.759
				c0.876-1.863,1.65-3.578,2.32-5.144c0.671-1.565,1.211-2.926,1.621-4.082c0.41-1.154,0.616-1.992,0.616-2.515
				c0-0.819,0.204-1.388,0.614-1.706c0.41-0.316,0.932-0.475,1.566-0.475c0.521,0,1.118,0.159,1.788,0.475
				c0.671,0.318,1.295,0.727,1.873,1.23c0.578,0.503,1.072,1.071,1.482,1.705c0.41,0.636,0.615,1.286,0.615,1.957
				c0,0.56-0.178,1.398-0.531,2.517c-0.355,1.117-0.793,2.357-1.314,3.717c-0.523,1.361-1.09,2.768-1.706,4.221
				c-0.615,1.454-1.193,2.796-1.733,4.027c-0.541,1.229-1.006,2.264-1.398,3.102c-0.391,0.838-0.624,1.314-0.699,1.426
				c0.819-0.708,1.686-1.415,2.601-2.124c0.912-0.708,1.853-1.342,2.823-1.901c0.969-0.559,1.929-1.015,2.879-1.371
				c0.951-0.353,1.873-0.531,2.768-0.531c1.454,0,2.6,0.318,3.439,0.951c0.839,0.633,1.472,1.407,1.901,2.321
				c0.428,0.914,0.699,1.881,0.811,2.906c0.112,1.027,0.168,1.949,0.168,2.768c0,2.572-0.531,5.089-1.594,7.548
				c-1.063,2.46-2.619,4.864-4.668,7.213c1.938-1.378,3.717-2.861,5.339-4.446c1.621-1.582,3.037-3.103,4.249-4.556
				c1.211-1.454,2.198-2.768,2.963-3.943C257.901,195.384,258.414,194.517,258.675,193.958z M227.923,214.701
				c0.895,0,1.863-0.381,2.908-1.146c1.043-0.763,2.086-1.761,3.13-2.991c1.044-1.23,2.05-2.636,3.02-4.221
				c0.969-1.584,1.817-3.206,2.544-4.864c0.727-1.658,1.314-3.29,1.762-4.892c0.447-1.604,0.67-3.038,0.67-4.306
				c0-0.596-0.149-0.895-0.447-0.895c-0.709,0-1.604,0.327-2.685,0.979c-1.081,0.653-2.228,1.511-3.438,2.573
				c-1.212,1.062-2.424,2.264-3.635,3.607c-1.211,1.341-2.311,2.702-3.298,4.081c-0.988,1.38-1.789,2.722-2.404,4.025
				c-0.615,1.306-0.923,2.442-0.923,3.411c0,0.522,0.046,1.054,0.14,1.593c0.092,0.541,0.251,1.035,0.475,1.482
				c0.223,0.448,0.512,0.82,0.867,1.118C226.963,214.553,227.401,214.701,227.923,214.701z"/>
			<path style="fill:#249DC3;" d="M290.376,193.902c0.372-0.671,0.811-1.108,1.314-1.314c0.503-0.204,0.969-0.232,1.398-0.084
				c0.428,0.149,0.727,0.476,0.894,0.979c0.168,0.503,0.102,1.109-0.196,1.817c-0.671,1.529-1.649,3.113-2.935,4.753
				c-1.286,1.64-2.768,3.299-4.445,4.976c-1.678,1.677-3.514,3.355-5.508,5.032c-1.995,1.677-4.054,3.354-6.178,5.032
				c-1.641,3.353-3.401,6.681-5.284,9.98c-1.883,3.298-3.774,6.263-5.675,8.891c-1.901,2.627-3.774,4.752-5.62,6.374
				c-1.845,1.621-3.55,2.432-5.116,2.432c-1.677,0-3.075-0.215-4.193-0.643c-1.118-0.429-2.003-0.96-2.656-1.593
				c-0.652-0.634-1.109-1.314-1.37-2.04c-0.261-0.728-0.392-1.369-0.392-1.93c0-1.081,0.475-2.256,1.426-3.521
				c0.95-1.268,2.246-2.62,3.886-4.054c1.641-1.435,3.532-2.955,5.675-4.557c2.143-1.604,4.426-3.262,6.85-4.976
				c0.447-0.857,0.81-1.519,1.09-1.986c0.28-0.465,0.503-0.838,0.67-1.118c0.169-0.279,0.308-0.521,0.42-0.727
				c0.112-0.205,0.242-0.447,0.392-0.727c0.148-0.279,0.325-0.661,0.531-1.145c0.205-0.484,0.494-1.155,0.867-2.013
				c-0.858,1.044-1.705,2.023-2.544,2.935c-0.838,0.913-1.63,1.715-2.376,2.404c-0.746,0.69-1.445,1.24-2.096,1.649
				c-0.653,0.411-1.202,0.615-1.65,0.615c-0.858,0-1.669-0.27-2.432-0.81c-0.764-0.541-1.444-1.202-2.041-1.985
				c-0.595-0.782-1.063-1.622-1.398-2.515c-0.335-0.895-0.503-1.697-0.503-2.404c0-1.008,0.15-2.078,0.448-3.216
				c0.299-1.137,0.698-2.31,1.202-3.522c0.502-1.21,1.062-2.432,1.677-3.662c0.615-1.23,1.239-2.441,1.873-3.635
				c0.484-0.968,0.969-1.928,1.454-2.879c0.484-0.951,0.913-1.854,1.286-2.711c0.372-0.857,0.671-1.658,0.895-2.404
				c0.224-0.746,0.335-1.379,0.335-1.901c0-0.559,0.41-0.839,1.23-0.839c0.819,0,1.733,0.206,2.74,0.616
				c1.006,0.411,1.919,1.016,2.739,1.818c0.82,0.801,1.23,1.76,1.23,2.879c0,0.485-0.14,1.128-0.419,1.929
				c-0.279,0.802-0.652,1.705-1.118,2.712c-0.467,1.006-0.998,2.096-1.593,3.27c-0.597,1.175-1.212,2.377-1.845,3.606
				c-0.746,1.454-1.482,2.88-2.209,4.277c-0.727,1.397-1.37,2.655-1.929,3.774c-0.559,1.119-0.998,2.023-1.313,2.711
				c-0.318,0.69-0.42,1.035-0.308,1.035c0.26,0,0.746-0.364,1.454-1.09c0.708-0.727,1.538-1.668,2.488-2.824
				c0.951-1.155,1.976-2.46,3.075-3.913c1.099-1.454,2.181-2.917,3.242-4.39c1.063-1.472,2.06-2.86,2.992-4.166
				c0.932-1.305,1.695-2.404,2.293-3.299c0.745-1.975,1.351-3.558,1.817-4.752c0.466-1.192,0.699-1.863,0.699-2.013
				c0-1.154,0.204-1.984,0.614-2.488c0.41-0.502,0.987-0.754,1.733-0.754c0.522,0,1.109,0.215,1.762,0.644
				c0.651,0.428,1.267,0.959,1.845,1.593c0.578,0.634,1.063,1.333,1.454,2.097c0.391,0.764,0.586,1.481,0.586,2.152
				c0,0.411-0.139,1.1-0.419,2.069c-0.279,0.97-0.661,2.134-1.145,3.494c-0.485,1.361-1.054,2.871-1.705,4.53
				c-0.653,1.658-1.352,3.345-2.097,5.06c2.795-2.273,5.218-4.501,7.269-6.682c2.049-2.181,3.671-4.445,4.864-6.793V193.902z
				 M247.882,238.072c1.007,0,2.061-0.383,3.159-1.146c1.1-0.764,2.229-1.79,3.383-3.075c1.156-1.286,2.312-2.795,3.467-4.529
				c1.155-1.733,2.293-3.57,3.411-5.507c-1.976,1.49-3.83,2.907-5.563,4.249c-1.733,1.342-3.243,2.581-4.528,3.719
				c-1.287,1.135-2.301,2.161-3.047,3.074c-0.745,0.913-1.118,1.687-1.118,2.321C247.044,237.773,247.324,238.072,247.882,238.072z"
				/>
		</g>
		<g>
			<path style="fill:#249DC3;" d="M157.312,247.06c0.957,0.958,2.033,1.436,3.226,1.436c0.43,0,0.879-0.078,1.349-0.235
				c0.43-0.137,0.811-0.361,1.143-0.675c0.156-0.137,0.298-0.289,0.426-0.455c0.126-0.167,0.238-0.357,0.337-0.573
				c0.195-0.372,0.293-0.813,0.293-1.321c-0.04-0.901-0.606-2.135-1.701-3.701l-1.525-2.144c-1.779-2.487-2.668-4.366-2.668-5.64
				c0-0.566,0.119-1.105,0.357-1.614c0.199-0.471,0.497-0.88,0.895-1.233c0.338-0.333,0.751-0.607,1.24-0.823
				c0.47-0.176,0.958-0.265,1.466-0.265c1.192,0,2.179,0.517,2.962,1.549c-0.783,0.786-1.212,1.178-1.291,1.178l0.029-0.029
				c-0.684-0.568-1.319-0.85-1.905-0.85c-1.31,0-1.964,0.636-1.964,1.905c0,0.686,0.515,1.809,1.546,3.372l1.517,2.258
				c1.848,2.795,2.773,4.936,2.773,6.421c0,0.704-0.118,1.35-0.353,1.935c-0.234,0.587-0.567,1.095-0.997,1.525
				c-0.45,0.45-0.978,0.791-1.583,1.026c-0.586,0.255-1.271,0.381-2.053,0.381c-1.153,0-2.326-0.361-3.519-1.084V247.06z"/>
			<path style="fill:#249DC3;" d="M174.583,229.876h1.847v20.496h-1.847v-12.961h-4.809v12.961h-1.847v-20.496h1.847v5.689h4.809
				V229.876z"/>
			<path style="fill:#249DC3;" d="M199.535,240.14c0,1.447-0.273,2.785-0.82,4.016c-0.567,1.29-1.309,2.396-2.226,3.314
				c-0.936,0.939-2.03,1.681-3.279,2.229c-1.23,0.548-2.577,0.821-4.04,0.821c-1.425,0-2.753-0.273-3.982-0.821
				c-0.625-0.274-1.215-0.596-1.772-0.968c-0.556-0.371-1.068-0.801-1.537-1.29c-0.488-0.468-0.917-0.982-1.288-1.539
				c-0.371-0.558-0.694-1.148-0.967-1.775c-0.547-1.231-0.819-2.56-0.819-3.987c0-1.447,0.272-2.786,0.819-4.017
				c0.508-1.232,1.24-2.337,2.196-3.313c0.918-0.92,2.021-1.662,3.309-2.229c1.229-0.548,2.577-0.822,4.041-0.822
				c1.444,0,2.781,0.274,4.011,0.822c1.249,0.548,2.352,1.29,3.309,2.229c0.937,0.958,1.679,2.061,2.226,3.313
				C199.261,237.354,199.535,238.693,199.535,240.14z M182.059,235.383c-0.979,1.444-1.466,3.024-1.466,4.742
				c0,1.131,0.225,2.225,0.674,3.278c0.449,1.054,1.056,1.961,1.817,2.722c0.782,0.8,1.691,1.415,2.728,1.844
				c1.016,0.468,2.141,0.703,3.372,0.703c1.153,0,2.248-0.234,3.284-0.703c1.016-0.428,1.925-1.044,2.727-1.844
				c0.763-0.741,1.388-1.639,1.877-2.693c0.449-1.054,0.674-2.157,0.674-3.308c0-1.132-0.225-2.235-0.674-3.308
				c-0.47-1.015-1.085-1.922-1.848-2.723c-0.782-0.78-1.691-1.404-2.727-1.873c-1.055-0.448-2.16-0.673-3.313-0.673
				c-1.408,0-2.737,0.331-3.988,0.995C183.907,233.226,182.86,234.173,182.059,235.383z"/>
			<path style="fill:#249DC3;" d="M204.841,250.373l-5.072-20.496h1.876l3.606,14.367l3.548-14.367h1.935l3.548,14.367l3.577-14.367
				h1.906l-5.102,20.496h-0.763l-4.134-16.684l-4.164,16.684H204.841z"/>
			<path style="fill:#249DC3;" d="M221.643,229.876h8.884v1.848h-7.008v3.841h5.366v1.847h-5.366v11.113h7.008v1.847h-8.884V229.876
				z"/>
			<path style="fill:#249DC3;" d="M234.515,229.876c0.919,0.04,1.789,0.245,2.609,0.617c0.782,0.391,1.485,0.889,2.112,1.495
				c0.586,0.586,1.065,1.31,1.436,2.17c0.352,0.821,0.528,1.691,0.528,2.609c0,3.01-1.447,5.141-4.339,6.392
				c0.097,0.117,0.19,0.234,0.278,0.352c0.087,0.117,0.181,0.245,0.279,0.381c0.195,0.293,0.361,0.577,0.498,0.851l0.851,1.73
				c0.782,1.252,1.651,1.984,2.61,2.199v1.847c-1.897-0.587-3.128-1.398-3.695-2.434l-0.762-1.613
				c-0.098-0.215-0.195-0.414-0.294-0.601c-0.098-0.186-0.195-0.357-0.293-0.514c-0.098-0.156-0.195-0.302-0.294-0.439
				c-0.098-0.137-0.195-0.264-0.292-0.381l-0.499-0.499l-0.528-0.41c-0.117,0-0.186,0.011-0.205,0.029v6.714h-1.847v-20.496H234.515
				z M234.515,241.839c0.723-0.038,1.378-0.194,1.964-0.468c0.586-0.274,1.104-0.646,1.555-1.114
				c0.41-0.411,0.752-0.939,1.025-1.584c0.235-0.605,0.352-1.241,0.352-1.905c0-0.724-0.128-1.378-0.381-1.965
				c-0.274-0.605-0.625-1.133-1.055-1.583c-0.47-0.47-0.988-0.83-1.555-1.085c-0.626-0.274-1.261-0.42-1.906-0.439V241.839z"/>
		</g>
	</g>
</g>
</svg>
